Coordinates
version=1
nRows=22
nColumns=24
inDegrees=yes

Units are S.I. units (second, meters, Newtons, ...)
Angles are in degrees.

endheader
time	pelvis_tilt	pelvis_list	pelvis_rotation	pelvis_tx	pelvis_ty	pelvis_tz	hip_flexion_r	hip_adduction_r	hip_rotation_r	knee_angle_r	ankle_angle_r	subtalar_angle_r	mtp_angle_r	hip_flexion_l	hip_adduction_l	hip_rotation_l	knee_angle_l	ankle_angle_l	subtalar_angle_l	mtp_angle_l	lumbar_extension	lumbar_bending	lumbar_rotation
      4.33000000	     70.58776164	      0.68691776	     -4.02573617	      0.53687657	      0.96906789	     -0.30003830	      0.78111139	    -15.25461784	     -6.26060815	    -68.59644665	    -26.00051054	      0.00000000	      0.00000000	     -0.98179972	     -3.84224909	      2.68964709	    -57.21942107	    -33.35959391	      0.00000000	      0.00000000	      0.00000000	      0.00000000	      0.00000000
      4.34000000	     70.52402032	      0.70116976	     -4.02469891	      0.53691758	      0.96902302	     -0.30000018	      0.85743477	    -15.27949535	     -6.13880763	    -68.79070973	    -25.97563113	      0.00000000	      0.00000000	     -0.89948416	     -3.85344738	      2.69470535	    -57.21188111	    -33.38650802	      0.00000000	      0.00000000	      0.00000000	      0.00000000	      0.00000000
      4.35000000	     70.44566807	      0.71342758	     -4.04022909	      0.53694233	      0.96894055	     -0.30003740	      0.94714189	    -15.27677474	     -6.00338634	    -68.98164200	    -25.99572692	      0.00000000	      0.00000000	     -0.80253071	     -3.86252744	      2.68440318	    -57.20746851	    -33.41321905	      0.00000000	      0.00000000	      0.00000000	      0.00000000	      0.00000000
      4.36000000	     70.35700869	      0.71991283	     -4.06695079	      0.53695661	      0.96883094	     -0.30010169	      1.05582716	    -15.25737172	     -5.85181349	    -69.16283337	    -26.07451635	      0.00000000	      0.00000000	     -0.69676703	     -3.87247740	      2.65980081	    -57.20675565	    -33.43686473	      0.00000000	      0.00000000	      0.00000000	      0.00000000	      0.00000000
      4.37000000	     70.26707032	      0.71661372	     -4.09214133	      0.53698423	      0.96873782	     -0.30010656	      1.18486255	    -15.23758042	     -5.67962491	    -69.32650098	    -26.21762656	      0.00000000	      0.00000000	     -0.59080218	     -3.88729857	      2.62398415	    -57.20934212	    -33.45518039	      0.00000000	      0.00000000	      0.00000000	      0.00000000	      0.00000000
      4.38000000	     70.18427518	      0.70433217	     -4.10806954	      0.53702746	      0.96868890	     -0.30002905	      1.32528363	    -15.22755067	     -5.49091401	    -69.46778906	    -26.41493009	      0.00000000	      0.00000000	     -0.49286147	     -3.90634159	      2.57990104	    -57.21316238	    -33.46706666	      0.00000000	      0.00000000	      0.00000000	      0.00000000	      0.00000000
      4.39000000	     70.11391348	      0.68985258	     -4.11731849	      0.53706471	      0.96866564	     -0.29993657	      1.45810044	    -15.22708960	     -5.30257583	    -69.58588731	    -26.63806230	      0.00000000	      0.00000000	     -0.40949744	     -3.92296524	      2.52904227	    -57.21474756	    -33.47299402	      0.00000000	      0.00000000	      0.00000000	      0.00000000	      0.00000000
      4.40000000	     70.05971501	      0.68190288	     -4.12696159	      0.53707987	      0.96862016	     -0.29993664	      1.56190280	    -15.23173360	     -5.13773583	    -69.68137704	    -26.84574200	      0.00000000	      0.00000000	     -0.34650743	     -3.92926979	      2.47196336	    -57.21040769	    -33.47511797	      0.00000000	      0.00000000	      0.00000000	      0.00000000	      0.00000000
      4.41000000	     70.02636718	      0.68384656	     -4.13826099	      0.53707924	      0.96854811	     -0.30003546	      1.62188757	    -15.24278440	     -5.01386337	    -69.75320460	    -26.99482466	      0.00000000	      0.00000000	     -0.30979023	     -3.92195365	      2.40947917	    -57.19743220	    -33.47692800	      0.00000000	      0.00000000	      0.00000000	      0.00000000	      0.00000000
      4.42000000	     70.01912727	      0.69141635	     -4.14504749	      0.53708247	      0.96851611	     -0.30009612	      1.63356720	    -15.26863186	     -4.93767613	    -69.79885874	    -27.05194630	      0.00000000	      0.00000000	     -0.30422900	     -3.90303079	      2.34267713	    -57.17453001	    -33.48236252	      0.00000000	      0.00000000	      0.00000000	      0.00000000	      0.00000000
      4.43000000	     70.03984976	      0.69963129	     -4.14392280	      0.53709737	      0.96856802	     -0.30003827	      1.59964028	    -15.31419366	     -4.91040964	    -69.81769634	    -27.00183263	      0.00000000	      0.00000000	     -0.33115683	     -3.87541347	      2.27168514	    -57.14152862	    -33.49461653	      0.00000000	      0.00000000	      0.00000000	      0.00000000	      0.00000000
      4.44000000	     70.08418474	      0.70891393	     -4.14150900	      0.53711120	      0.96865056	     -0.29998178	      1.52602238	    -15.37265390	     -4.93209003	    -69.81320012	    -26.85159694	      0.00000000	      0.00000000	     -0.38672344	     -3.83948878	      2.19506227	    -57.09890441	    -33.51513020	      0.00000000	      0.00000000	      0.00000000	      0.00000000	      0.00000000
      4.45000000	     70.14384897	      0.72106041	     -4.14699785	      0.53711037	      0.96869388	     -0.30005457	      1.42228740	    -15.43115788	     -4.99585789	    -69.79125260	    -26.63095566	      0.00000000	      0.00000000	     -0.46268328	     -3.79474463	      2.11099221	    -57.04753378	    -33.54318084	      0.00000000	      0.00000000	      0.00000000	      0.00000000	      0.00000000
      4.46000000	     70.21086148	      0.73347242	     -4.16092644	      0.53709644	      0.96871144	     -0.30019053	      1.30315292	    -15.48119208	     -5.08124606	    -69.75701139	    -26.38653079	      0.00000000	      0.00000000	     -0.54871577	     -3.74374931	      2.01920401	    -56.98844908	    -33.57616980	      0.00000000	      0.00000000	      0.00000000	      0.00000000	      0.00000000
      4.47000000	     70.27902776	      0.74172138	     -4.17518521	      0.53707883	      0.96875635	     -0.30024977	      1.18580074	    -15.52037544	     -5.15865670	    -69.71388787	    -26.16941133	      0.00000000	      0.00000000	     -0.63459865	     -3.69325974	      1.92162557	    -56.92231295	    -33.61039405	      0.00000000	      0.00000000	      0.00000000	      0.00000000	      0.00000000
      4.48000000	     70.34296937	      0.74502249	     -4.18127746	      0.53705990	      0.96882459	     -0.30023031	      1.08450244	    -15.54813594	     -5.20254925	    -69.66418369	    -26.01948857	      0.00000000	      0.00000000	     -0.71194256	     -3.65108451	      1.82113876	    -56.84894673	    -33.64201048	      0.00000000	      0.00000000	      0.00000000	      0.00000000	      0.00000000
      4.49000000	     70.39799515	      0.74524539	     -4.17535457	      0.53703506	      0.96887004	     -0.30022650	      1.00733604	    -15.56476179	     -5.20200204	    -69.60916812	    -25.95307069	      0.00000000	      0.00000000	     -0.77570634	     -3.62179654	      1.71973846	    -56.76744812	    -33.66798281	      0.00000000	      0.00000000	      0.00000000	      0.00000000	      0.00000000
      4.50000000	     70.44146306	      0.74233730	     -4.15859663	      0.53700521	      0.96888566	     -0.30024785	      0.95582044	    -15.57329960	     -5.16374277	    -69.54864346	    -25.95903691	      0.00000000	      0.00000000	     -0.82478663	     -3.60431837	      1.61761775	    -56.67687825	    -33.68686373	      0.00000000	      0.00000000	      0.00000000	      0.00000000	      0.00000000
      4.51000000	     70.47349300	      0.73476694	     -4.13803779	      0.53697968	      0.96890859	     -0.30021909	      0.92538118	    -15.57750002	     -5.10965837	    -69.48149974	    -26.00506239	      0.00000000	      0.00000000	     -0.86117573	     -3.59205627	      1.51351824	    -56.57708551	    -33.69921568	      0.00000000	      0.00000000	      0.00000000	      0.00000000	      0.00000000
      4.52000000	     70.49613454	      0.72427450	     -4.12638219	      0.53696379	      0.96894991	     -0.30014441	      0.90653406	    -15.57708454	     -5.06900971	    -69.40708671	    -26.05175296	      0.00000000	      0.00000000	     -0.88841527	     -3.57564897	      1.40598582	    -56.46918945	    -33.70742765	      0.00000000	      0.00000000	      0.00000000	      0.00000000	      0.00000000
      4.53000000	     70.51263667	      0.71595525	     -4.13471578	      0.53695278	      0.96897671	     -0.30012459	      0.88859661	    -15.56880722	     -5.06425363	    -69.32558322	    -26.06945473	      0.00000000	      0.00000000	     -0.91030004	     -3.54801698	      1.29500276	    -56.35533026	    -33.71487824	      0.00000000	      0.00000000	      0.00000000	      0.00000000	      0.00000000
      4.54000000	     70.52745958	      0.71206688	     -4.16173774	      0.53694185	      0.96897975	     -0.30017985	      0.86503869	    -15.55346154	     -5.09721275	    -69.23707080	    -26.05050754	      0.00000000	      0.00000000	     -0.92998699	     -3.50898600	      1.18298466	    -56.23760898	    -33.72474171	      0.00000000	      0.00000000	      0.00000000	      0.00000000	      0.00000000
